<svg xmlns="http://www.w3.org/2000/svg" xmlns:xlink="http://www.w3.org/1999/xlink" width="320" height="350" viewBox="0 0 320 350" fill="none"><g opacity="1" transform="translate(0 0)  rotate(0 160 174.9885106979629)"><path id="路径 3" fill-rule="evenodd" style="fill:#42B883" transform="translate(0 115.2914)  rotate(0 50 60)" opacity="1" d="M53.33,0L0,60L53.33,120L100,120L46.67,60L100,0L53.33,0Z " /><path id="路径 4" fill-rule="evenodd" style="fill:#42B883" transform="translate(220 115.2914)  rotate(0 50 60)" opacity="1" d="M53.33,60L0,120L46.67,120L100,60L46.67,0L0,0L53.33,60Z " /><path id="路径 5" fill-rule="evenodd" style="fill:#35495E" transform="translate(120.06072760526756 151.9331049174304)  rotate(0 33.88358300054839 99.02195823924771)" opacity="1" d="M67.34,14.8C66.5,11.83 64.71,9.19 62.27,7.31C60.73,6.13 58.96,5.43 56.86,4.88C54.82,4.34 52.26,3.89 49.06,3.33L37.59,1.31C34.42,0.75 31.87,0.3 29.79,0.11C27.64,-0.09 25.75,-0.05 23.91,0.53C20.98,1.45 18.4,3.3 16.6,5.78C15.46,7.34 14.81,9.12 14.31,11.21C13.83,13.25 13.44,15.81 12.95,19L12.93,19.11C5.42,68.44 2.98,95.66 1.83,122.26L1.83,122.32C0.86,144.87 0.13,161.86 0.02,173.55C-0.04,179.4 0.06,184.01 0.37,187.37C0.53,189.04 0.74,190.5 1.05,191.67C1.33,192.74 1.8,194.03 2.76,194.92C6.14,198.07 10.9,198.91 15.15,197.1C16.36,196.59 17.24,195.53 17.87,194.63C18.56,193.63 19.26,192.33 19.98,190.81C21.42,187.76 23.09,183.45 25.03,177.93C28.92,166.89 34.03,150.66 40.82,129.11L40.84,129.05C48.8,103.77 55.95,77.39 66.11,28.66L66.14,28.54C66.8,25.36 67.33,22.81 67.59,20.72C67.85,18.57 67.87,16.66 67.34,14.8Z " /><path id="路径 6" fill-rule="evenodd" style="fill:#35495E" transform="translate(143.7416607236878 91.33163102677683)  rotate(0 24.028571003900726 25.381406031371228)" opacity="1" d="M46.8,42.58C46.97,41.25 47.03,39.6 47.11,37.63L47.97,16.57C48.03,15.03 48.08,13.73 48.04,12.65C48,11.51 47.86,10.43 47.42,9.36C46.74,7.71 45.6,6.3 44.14,5.29C43.19,4.63 42.16,4.25 41.06,3.97C40.01,3.7 38.72,3.47 37.21,3.21L22.81,0.67C21.29,0.4 20.01,0.17 18.93,0.07C17.8,-0.04 16.7,-0.04 15.58,0.25C13.86,0.7 12.31,1.64 11.11,2.95C10.33,3.81 9.82,4.78 9.4,5.84C8.99,6.84 8.59,8.08 8.13,9.55L1.73,29.63C1.13,31.51 0.63,33.08 0.33,34.39C0.02,35.74 -0.13,37.08 0.15,38.46C0.58,40.53 1.7,42.39 3.34,43.73C4.42,44.62 5.68,45.11 7.03,45.47C8.32,45.81 9.95,46.1 11.89,46.44L31.81,49.95C33.76,50.29 35.38,50.58 36.71,50.7C38.1,50.82 39.45,50.8 40.77,50.33C42.77,49.64 44.47,48.27 45.58,46.47C46.31,45.27 46.62,43.96 46.8,42.58Z " /><path id="路径 7" fill-rule="evenodd" style="fill:#F35B51" transform="translate(155.34331346844132 0)  rotate(0 25.857968666016745 40.89236045424587)" opacity="1" d="M51.33,60.9C52.25,55.7 51.5,50.58 49.47,46.1C49.47,46.1 49.47,46.1 49.46,46.1C49.46,46.09 49.46,46.09 49.46,46.09C43.88,36.43 41.54,24.83 43.62,12.99C44.44,8.37 45.87,4.02 47.83,0C24.95,0.58 4.88,17.18 0.75,40.59C-0.68,48.69 -0.03,56.69 2.31,64.02C2.36,64.15 2.4,64.27 2.44,64.39C5.25,72.95 12.57,79.72 22.06,81.4C35.8,83.82 48.91,74.64 51.33,60.9Z " /></g></svg>